<svg width="34" height="26" viewBox="0 0 34 26" fill="none" xmlns="http://www.w3.org/2000/svg">
<path d="M3.1875 0.25C1.42773 0.25 0 1.67773 0 3.4375C0 4.44023 0.471484 5.3832 1.275 5.9875L15.725 16.825C16.482 17.3895 17.518 17.3895 18.275 16.825L32.725 5.9875C33.5285 5.3832 34 4.44023 34 3.4375C34 1.67773 32.5723 0.25 30.8125 0.25H3.1875ZM0 7.6875V21.5C0 23.8441 1.90586 25.75 4.25 25.75H29.75C32.0941 25.75 34 23.8441 34 21.5V7.6875L19.55 18.525C18.0359 19.6605 15.9641 19.6605 14.45 18.525L0 7.6875Z" fill="#2E3338"/>
</svg>
