<svg width="38" height="36" viewBox="0 0 38 36" fill="none" xmlns="http://www.w3.org/2000/svg">
<path d="M12.5997 28.9871C12.5997 29.136 12.4285 29.2551 12.2126 29.2551C11.9669 29.2775 11.7957 29.1584 11.7957 28.9871C11.7957 28.8383 11.9669 28.7192 12.1828 28.7192C12.4061 28.6968 12.5997 28.8159 12.5997 28.9871ZM10.2846 28.6522C10.2325 28.801 10.3814 28.9723 10.6047 29.0169C10.7982 29.0914 11.0215 29.0169 11.0662 28.868C11.1109 28.7192 10.9694 28.5479 10.7461 28.481C10.5526 28.4288 10.3367 28.5033 10.2846 28.6522ZM13.5749 28.5256C13.359 28.5777 13.2101 28.7192 13.2324 28.8904C13.2548 29.0393 13.4483 29.136 13.6716 29.0839C13.8875 29.0318 14.0364 28.8904 14.0141 28.7415C13.9917 28.6001 13.7907 28.5033 13.5749 28.5256ZM18.473 0C8.14814 0 0.25 7.83859 0.25 18.1635C0.25 26.4189 5.44595 33.4834 12.8677 35.9697C13.8205 36.1409 14.1555 35.5528 14.1555 35.0689C14.1555 34.6074 14.1332 32.0615 14.1332 30.4983C14.1332 30.4983 8.92232 31.6149 7.82805 28.28C7.82805 28.28 6.97942 26.1137 5.7586 25.5554C5.7586 25.5554 4.05391 24.3867 5.8777 24.4091C5.8777 24.4091 7.73127 24.5579 8.75111 26.3296C10.3814 29.203 13.1133 28.3767 14.1778 27.8854C14.349 26.6944 14.8329 25.8681 15.3689 25.3768C11.2076 24.9152 7.0092 24.3123 7.0092 17.1511C7.0092 15.104 7.57495 14.0767 8.766 12.7666C8.57245 12.2827 7.93971 10.2877 8.95954 7.71204C10.5154 7.22818 14.0959 9.72193 14.0959 9.72193C15.5848 9.30507 17.1852 9.08919 18.7708 9.08919C20.3564 9.08919 21.9569 9.30507 23.4457 9.72193C23.4457 9.72193 27.0263 7.22073 28.5821 7.71204C29.6019 10.2951 28.9692 12.2827 28.7756 12.7666C29.9667 14.0842 30.6962 15.1114 30.6962 17.1511C30.6962 24.3346 26.3116 24.9078 22.1504 25.3768C22.8353 25.9649 23.4159 27.0815 23.4159 28.8308C23.4159 31.3395 23.3936 34.4436 23.3936 35.054C23.3936 35.5379 23.736 36.126 24.6814 35.9548C32.1254 33.4834 37.1725 26.4189 37.1725 18.1635C37.1725 7.83859 28.7979 0 18.473 0ZM7.48562 25.6745C7.38885 25.749 7.41118 25.9202 7.53773 26.0616C7.65683 26.1807 7.82805 26.2328 7.92482 26.1361C8.02159 26.0616 7.99926 25.8904 7.87271 25.749C7.75361 25.6299 7.58239 25.5778 7.48562 25.6745ZM6.68166 25.0716C6.62955 25.1683 6.70399 25.2875 6.85288 25.3619C6.97198 25.4363 7.12086 25.414 7.17297 25.3098C7.22508 25.213 7.15064 25.0939 7.00176 25.0195C6.85288 24.9748 6.73377 24.9971 6.68166 25.0716ZM9.09354 27.7217C8.97443 27.8184 9.0191 28.0418 9.19031 28.1832C9.36152 28.3544 9.5774 28.3767 9.67417 28.2576C9.77094 28.1609 9.72628 27.9375 9.5774 27.7961C9.41363 27.6249 9.19031 27.6026 9.09354 27.7217ZM8.24491 26.6274C8.12581 26.7018 8.12581 26.8954 8.24491 27.0666C8.36402 27.2378 8.56501 27.3122 8.66178 27.2378C8.78089 27.141 8.78089 26.9475 8.66178 26.7763C8.55756 26.605 8.36402 26.5306 8.24491 26.6274Z" fill="#0E015F"/>
</svg>
