<svg width="36" height="36" viewBox="0 0 36 36" fill="none" xmlns="http://www.w3.org/2000/svg">
<path d="M17.6803 9.01562C12.7115 9.01562 8.70373 13.0234 8.70373 17.9922C8.70373 22.9609 12.7115 26.9687 17.6803 26.9687C22.649 26.9687 26.6569 22.9609 26.6569 17.9922C26.6569 13.0234 22.649 9.01562 17.6803 9.01562ZM17.6803 23.8281C14.4694 23.8281 11.8444 21.2109 11.8444 17.9922C11.8444 14.7734 14.4615 12.1562 17.6803 12.1562C20.899 12.1562 23.5162 14.7734 23.5162 17.9922C23.5162 21.2109 20.8912 23.8281 17.6803 23.8281ZM29.1178 8.64844C29.1178 9.8125 28.1803 10.7422 27.024 10.7422C25.86 10.7422 24.9303 9.80469 24.9303 8.64844C24.9303 7.49219 25.8678 6.55469 27.024 6.55469C28.1803 6.55469 29.1178 7.49219 29.1178 8.64844ZM35.0631 10.7734C34.9303 7.96875 34.2897 5.48437 32.235 3.4375C30.1881 1.39062 27.7037 0.75 24.899 0.609375C22.0084 0.445313 13.3444 0.445313 10.4537 0.609375C7.65686 0.742187 5.17249 1.38281 3.1178 3.42969C1.06311 5.47656 0.430298 7.96094 0.289673 10.7656C0.12561 13.6562 0.12561 22.3203 0.289673 25.2109C0.422485 28.0156 1.06311 30.5 3.1178 32.5469C5.17249 34.5938 7.64905 35.2344 10.4537 35.375C13.3444 35.5391 22.0084 35.5391 24.899 35.375C27.7037 35.2422 30.1881 34.6016 32.235 32.5469C34.2819 30.5 34.9225 28.0156 35.0631 25.2109C35.2272 22.3203 35.2272 13.6641 35.0631 10.7734ZM31.3287 28.3125C30.7194 29.8437 29.5397 31.0234 28.0006 31.6406C25.6959 32.5547 20.2272 32.3437 17.6803 32.3437C15.1334 32.3437 9.65686 32.5469 7.35999 31.6406C5.82874 31.0312 4.64905 29.8516 4.03186 28.3125C3.1178 26.0078 3.32874 20.5391 3.32874 17.9922C3.32874 15.4453 3.12561 9.96875 4.03186 7.67187C4.64124 6.14062 5.82092 4.96094 7.35999 4.34375C9.66467 3.42969 15.1334 3.64062 17.6803 3.64062C20.2272 3.64062 25.7037 3.4375 28.0006 4.34375C29.5319 4.95312 30.7115 6.13281 31.3287 7.67187C32.2428 9.97656 32.0319 15.4453 32.0319 17.9922C32.0319 20.5391 32.2428 26.0156 31.3287 28.3125Z" fill="#0E015F"/>
</svg>
