<svg width="34" height="34" viewBox="0 0 34 34" fill="none" xmlns="http://www.w3.org/2000/svg">
<path d="M30.875 0.375H2.36758C1.06133 0.375 0 1.45117 0 2.77227V31.2277C0 32.5488 1.06133 33.625 2.36758 33.625H30.875C32.1813 33.625 33.25 32.5488 33.25 31.2277V2.77227C33.25 1.45117 32.1813 0.375 30.875 0.375ZM10.0492 28.875H5.12109V13.007H10.0566V28.875H10.0492ZM7.58516 10.8398C6.0043 10.8398 4.72773 9.55586 4.72773 7.98242C4.72773 6.40898 6.0043 5.125 7.58516 5.125C9.15859 5.125 10.4426 6.40898 10.4426 7.98242C10.4426 9.56328 9.16602 10.8398 7.58516 10.8398ZM28.5223 28.875H23.5941V21.1562C23.5941 19.3156 23.557 16.948 21.0336 16.948C18.4656 16.948 18.0723 18.952 18.0723 21.0227V28.875H13.1441V13.007H17.8719V15.1742H17.9387C18.5992 13.9273 20.2098 12.6137 22.607 12.6137C27.5945 12.6137 28.5223 15.9016 28.5223 20.1766V28.875Z" fill="#0E015F"/>
</svg>
